# xmcd CD database file
#
# Track frame offsets:
#	150
#	3139
#	23887
#	26332
#	40285
#	52347
#	61480
#	63812
#	85252
#	108872
#	111914
#	128532
#	133559
#	155834
#	177735
#	194690
#
# Disc length: 2689 seconds
#
# Revision: 2
# Processed by: cddbd v1.4b41PL1 Copyright (c) Steve Scherf et al.
# Submitted via: Feurio! 1.50.2ß - http://www.feurio.com
#
DISCID=db0a7f10
DTITLE=Mr. Doctor - Setripn' Bloccstyle
DYEAR=1900
DGENRE=
TTITLE0=Setripn'
TTITLE1=Bloccstyle
TTITLE2=Plot Murder
TTITLE3=Fill 'Em Up
TTITLE4=Fucc Yo Side
TTITLE5=Rollin' Wit GBC
TTITLE6=It's All Da Way On
TTITLE7=Killa Cap Pilla
TTITLE8=No Bitch
TTITLE9=Misty Blue Tribute
TTITLE10=40 Oz and Chronic Dice
TTITLE11=She Fucc Everybody
TTITLE12=Treat 'Em Like Hoez
TTITLE13=Da Real Deal
TTITLE14=Largest Way To Represent
TTITLE15=5000 C'z
EXTD=
EXTT0=
EXTT1=
EXTT2=
EXTT3=
EXTT4=
EXTT5=
EXTT6=
EXTT7=
EXTT8=
EXTT9=
EXTT10=
EXTT11=
EXTT12=
EXTT13=
EXTT14=
EXTT15=
PLAYORDER=
